<svg xmlns="http://www.w3.org/2000/svg" class="Icon BurgerCollapse" viewBox="0 0 32 32" aria-hidden="true" focusable="false"><path d="M11,16h20c0.6,0,1,0.4,1,1l0,0c0,0.6-0.4,1-1,1H11c-0.6,0-1-0.4-1-1l0,0C10,16.4,10.4,16,11,16z M1,4h30c0.6,0,1,0.4,1,1l0,0c0,0.6-0.4,1-1,1H1C0.4,6,0,5.6,0,5l0,0C0,4.4,0.4,4,1,4z M1,28h30c0.6,0,1,0.4,1,1l0,0c0,0.6-0.4,1-1,1H1c-0.6,0-1-0.4-1-1l0,0C0,28.4,0.4,28,1,28z M7.7,22.7c0.4-0.4,0.4-1,0-1.4L3.4,17l4.3-4.3c0.4-0.4,0.4-1,0-1.4s-1-0.4-1.4,0L0.6,17l5.7,5.7C6.5,22.9,6.7,23,7,23S7.5,22.9,7.7,22.7z" fill="#919191"></path></svg>