<svg xmlns="http://www.w3.org/2000/svg" width="18.114" height="15.526" viewBox="0 0 18.114 15.526">
  <path id="list" d="M17.75,10.469h-7.5c-.714,0-.776.578-.776,1.294s.062,1.294.776,1.294h7.5c.714,0,.776-.578.776-1.294s-.062-1.294-.776-1.294Zm2.588,6.469H10.246c-.714,0-.776.578-.776,1.294s.062,1.294.776,1.294H20.338c.714,0,.776-.578.776-1.294s-.062-1.294-.776-1.294ZM10.246,6.588H20.338c.714,0,.776-.578.776-1.294S21.052,4,20.338,4H10.246c-.714,0-.776.578-.776,1.294S9.531,6.588,10.246,6.588Zm-4.14,3.882H3.776c-.714,0-.776.578-.776,1.294s.062,1.294.776,1.294H6.105c.714,0,.776-.578.776-1.294s-.062-1.294-.776-1.294Zm0,6.469H3.776c-.714,0-.776.578-.776,1.294s.062,1.294.776,1.294H6.105c.714,0,.776-.578.776-1.294s-.062-1.294-.776-1.294ZM6.105,4H3.776C3.062,4,3,4.578,3,5.294s.062,1.294.776,1.294H6.105c.714,0,.776-.578.776-1.294S6.819,4,6.105,4Z" transform="translate(-3 -4)" fill="#c5191f"/>
</svg>
